<svg xmlns="http://www.w3.org/2000/svg" version="1.1" xmlns:xlink="http://www.w3.org/1999/xlink" xmlns:svgjs="http://svgjs.dev/svgjs" width="1000" height="623" viewBox="0 0 1000 623"><g transform="matrix(1,0,0,1,-0.6060606060606233,0.2522267206477409)"><svg xmlns="http://www.w3.org/2000/svg" version="1.1" xmlns:xlink="http://www.w3.org/1999/xlink" xmlns:svgjs="http://svgjs.com/svgjs" viewBox="0 0 396 247" data-background-color="#ffffff" preserveAspectRatio="xMidYMid meet" height="623" width="1000"><defs></defs><g id="tight-bounds" transform="matrix(1,0,0,1,0.2400000000000091,-0.09999999999999432)"><svg viewBox="0 0 395.52 247.2" height="247.2" width="395.52"><g><svg xmlns="http://www.w3.org/2000/svg" version="1.1" xmlns:xlink="http://www.w3.org/1999/xlink" xmlns:svgjs="http://svgjs.com/svgjs"></svg></g><g><svg viewBox="0 0 395.52 247.2" height="247.2" width="395.52"><g><path d="M49.84 204.746c-15.263-7.97-27.218-19.044-35.867-33.222-3.348-5.475-6.048-11.225-8.1-17.249l65.756 0c2.758 3.354 5.976 6.137 9.652 8.346 6.003 3.663 12.736 5.495 20.198 5.495 7.462 0 14.211-1.832 20.248-5.495 3.656-2.21 6.859-4.992 9.609-8.346h65.748c-2.052 6.024-4.752 11.774-8.1 17.249-8.649 14.177-20.604 25.251-35.867 33.222-15.263 7.97-32.475 11.956-51.638 11.956-19.163 0-36.376-3.985-51.639-11.956zM13.973 75.625c8.649-14.143 20.604-25.2 35.867-33.171 15.263-7.97 32.475-11.956 51.639-11.956 19.163 0 36.376 3.985 51.638 11.956 15.263 7.97 27.218 19.027 35.867 33.171 3.352 5.494 6.054 11.261 8.107 17.3l-65.733 0c-2.755-3.362-5.965-6.161-9.631-8.397-6.037-3.629-12.787-5.444-20.248-5.444-7.462 0-14.194 1.815-20.198 5.444-3.686 2.237-6.911 5.036-9.674 8.397l-65.741 0c2.053-6.039 4.755-11.806 8.107-17.3zM330.417 212.632l-30.271-44.771h-16.28v44.771h-60.032l0-58.357h139.22c-1.883 1.208-3.859 2.345-5.927 3.411l37.393 54.946zM223.834 34.568h85.724c16.45 0 30.78 2.713 42.99 8.14 12.21 5.427 21.622 13.228 28.236 23.403 5.143 7.913 8.287 16.851 9.43 26.814h-61.571c-1.018-2.576-2.546-4.782-4.585-6.617-4.07-3.629-10.175-5.444-18.315-5.443h-21.877v12.06l-60.032 0z" fill="#4676ed" data-fill-palette-color="tertiary"></path></g><g transform="matrix(1,0,0,1,0,99.85518290058815)"><svg viewBox="0 0 395.52 47.489634198823694" height="47.489634198823694" width="395.52"><g><svg viewBox="0 0 395.52 47.489634198823694" height="47.489634198823694" width="395.52"><g><svg viewBox="0 0 395.52 47.489634198823694" height="47.489634198823694" width="395.52"><g><svg viewBox="0 0 395.52 47.489634198823694" height="47.489634198823694" width="395.52"><g><svg viewBox="0 0 395.52 47.489634198823694" height="47.489634198823694" width="395.52"><g><svg viewBox="0 0 395.52 47.489634198823694" height="47.489634198823694" width="395.52"><g transform="matrix(1,0,0,1,0,0)"><svg width="395.52" viewBox="1.45 -41.05 348.52000000000004 41.849999999999994" height="47.489634198823694" data-palette-color="#343131"><path d="M21.2 0.8Q15.55 0.8 11.05-1.55 6.55-3.9 4-8.08 1.45-12.25 1.45-17.5L1.45-17.5Q1.45-22.75 4-26.93 6.55-31.1 11.05-33.45 15.55-35.8 21.2-35.8L21.2-35.8Q26.85-35.8 31.35-33.45 35.85-31.1 38.4-26.93 40.95-22.75 40.95-17.5L40.95-17.5Q40.95-12.25 38.4-8.08 35.85-3.9 31.35-1.55 26.85 0.8 21.2 0.8L21.2 0.8ZM21.2-8.75Q23.4-8.75 25.18-9.83 26.95-10.9 28-12.88 29.05-14.85 29.05-17.5L29.05-17.5Q29.05-20.15 28-22.13 26.95-24.1 25.18-25.18 23.4-26.25 21.2-26.25L21.2-26.25Q19-26.25 17.23-25.18 15.45-24.1 14.4-22.13 13.35-20.15 13.35-17.5L13.35-17.5Q13.35-14.85 14.4-12.88 15.45-10.9 17.23-9.83 19-8.75 21.2-8.75L21.2-8.75ZM55.6 0.5Q52.1 0.5 48.7-0.25 45.3-1 43.2-2.2L43.2-2.2 46.3-9.65Q48.2-8.5 50.8-7.85 53.4-7.2 55.85-7.2L55.85-7.2Q57.8-7.2 58.57-7.53 59.35-7.85 59.35-8.5L59.35-8.5Q59.35-9.15 58.37-9.4 57.4-9.65 55.2-9.9L55.2-9.9Q51.85-10.3 49.5-10.93 47.15-11.55 45.37-13.35 43.6-15.15 43.6-18.5L43.6-18.5Q43.6-21.15 45.2-23.25 46.8-25.35 49.97-26.6 53.15-27.85 57.6-27.85L57.6-27.85Q60.7-27.85 63.67-27.28 66.65-26.7 68.75-25.6L68.75-25.6 65.65-18.15Q62.05-20.15 57.75-20.15L57.75-20.15Q54.05-20.15 54.05-18.85L54.05-18.85Q54.05-18.2 55.05-17.93 56.05-17.65 58.2-17.4L58.2-17.4Q61.55-17 63.87-16.35 66.2-15.7 67.97-13.9 69.75-12.1 69.75-8.75L69.75-8.75Q69.75-6.2 68.15-4.1 66.55-2 63.35-0.75 60.15 0.5 55.6 0.5L55.6 0.5ZM87.85 0.5Q83.2 0.5 79.52-1.3 75.85-3.1 73.77-6.35 71.7-9.6 71.7-13.7L71.7-13.7Q71.7-17.8 73.77-21.03 75.85-24.25 79.52-26.05 83.2-27.85 87.85-27.85L87.85-27.85Q92.85-27.85 96.4-25.7 99.95-23.55 101.3-19.75L101.3-19.75 92.55-15.45Q90.95-19.05 87.8-19.05L87.8-19.05Q85.8-19.05 84.47-17.65 83.15-16.25 83.15-13.7L83.15-13.7Q83.15-11.1 84.47-9.7 85.8-8.3 87.8-8.3L87.8-8.3Q90.95-8.3 92.55-11.9L92.55-11.9 101.3-7.6Q99.95-3.8 96.4-1.65 92.85 0.5 87.85 0.5L87.85 0.5ZM122.34-27.35L133.64-27.35 133.64 0 122.89 0 122.89-2.25Q120.44 0.5 115.39 0.5L115.39 0.5Q111.79 0.5 108.77-1.23 105.74-2.95 103.97-6.2 102.19-9.45 102.19-13.7L102.19-13.7Q102.19-17.95 103.97-21.18 105.74-24.4 108.77-26.13 111.79-27.85 115.39-27.85L115.39-27.85Q119.94-27.85 122.34-25.5L122.34-25.5 122.34-27.35ZM118.09-8.3Q120.04-8.3 121.29-9.73 122.54-11.15 122.54-13.7L122.54-13.7Q122.54-16.25 121.29-17.65 120.04-19.05 118.09-19.05L118.09-19.05Q116.14-19.05 114.89-17.65 113.64-16.25 113.64-13.7L113.64-13.7Q113.64-11.15 114.89-9.73 116.14-8.3 118.09-8.3L118.09-8.3ZM149.39-24.4Q152.39-27.85 158.24-27.85L158.24-27.85 158.24-17.85Q156.89-18.05 155.74-18.05L155.74-18.05Q149.94-18.05 149.94-12.15L149.94-12.15 149.94 0 138.64 0 138.64-27.35 149.39-27.35 149.39-24.4ZM197.74 0L191.79-8.8 188.59-8.8 188.59 0 176.79 0 176.79-35 193.64-35Q198.49-35 202.09-33.4 205.69-31.8 207.64-28.8 209.59-25.8 209.59-21.8L209.59-21.8Q209.59-18.05 207.89-15.25 206.19-12.45 202.99-10.8L202.99-10.8 210.34 0 197.74 0ZM197.69-21.8Q197.69-23.75 196.49-24.83 195.29-25.9 192.89-25.9L192.89-25.9 188.59-25.9 188.59-17.7 192.89-17.7Q195.29-17.7 196.49-18.78 197.69-19.85 197.69-21.8L197.69-21.8ZM229.13-7.85Q230.93-7.85 232.16-8.3 233.38-8.75 234.83-9.85L234.83-9.85 240.73-3.9Q236.63 0.5 228.78 0.5L228.78 0.5Q223.83 0.5 220.08-1.33 216.33-3.15 214.28-6.4 212.23-9.65 212.23-13.7L212.23-13.7Q212.23-17.8 214.28-21.03 216.33-24.25 219.91-26.05 223.48-27.85 227.93-27.85L227.93-27.85Q231.98-27.85 235.38-26.23 238.78-24.6 240.78-21.43 242.78-18.25 242.78-13.85L242.78-13.85 224.08-10.25Q225.33-7.85 229.13-7.85L229.13-7.85ZM227.98-20.15Q226.03-20.15 224.81-19 223.58-17.85 223.33-15.6L223.33-15.6 232.08-17.3Q231.63-18.6 230.56-19.38 229.48-20.15 227.98-20.15L227.98-20.15ZM265.33-27.85Q270.38-27.85 273.46-24.8 276.53-21.75 276.53-15.6L276.53-15.6 276.53 0 265.23 0 265.23-13.65Q265.23-18.35 261.88-18.35L261.88-18.35Q259.98-18.35 258.81-17.03 257.63-15.7 257.63-12.85L257.63-12.85 257.63 0 246.33 0 246.33-27.35 257.08-27.35 257.08-24.65Q258.68-26.25 260.78-27.05 262.88-27.85 265.33-27.85L265.33-27.85ZM281.43 0L281.43-27.35 292.73-27.35 292.73 0 281.43 0ZM287.08-29.55Q284.03-29.55 282.15-31.18 280.28-32.8 280.28-35.3L280.28-35.3Q280.28-37.8 282.15-39.43 284.03-41.05 287.08-41.05L287.08-41.05Q290.18-41.05 292.03-39.5 293.88-37.95 293.88-35.5L293.88-35.5Q293.88-32.9 292.03-31.23 290.18-29.55 287.08-29.55L287.08-29.55ZM313.18-7.85Q314.98-7.85 316.2-8.3 317.43-8.75 318.88-9.85L318.88-9.85 324.78-3.9Q320.68 0.5 312.83 0.5L312.83 0.5Q307.88 0.5 304.13-1.33 300.38-3.15 298.33-6.4 296.28-9.65 296.28-13.7L296.28-13.7Q296.28-17.8 298.33-21.03 300.38-24.25 303.95-26.05 307.53-27.85 311.98-27.85L311.98-27.85Q316.03-27.85 319.43-26.23 322.83-24.6 324.83-21.43 326.83-18.25 326.83-13.85L326.83-13.85 308.13-10.25Q309.38-7.85 313.18-7.85L313.18-7.85ZM312.03-20.15Q310.08-20.15 308.85-19 307.63-17.85 307.38-15.6L307.38-15.6 316.13-17.3Q315.68-18.6 314.6-19.38 313.53-20.15 312.03-20.15L312.03-20.15ZM341.12-24.4Q344.12-27.85 349.97-27.85L349.97-27.85 349.97-17.85Q348.62-18.05 347.47-18.05L347.47-18.05Q341.67-18.05 341.67-12.15L341.67-12.15 341.67 0 330.37 0 330.37-27.35 341.12-27.35 341.12-24.4Z" opacity="1" transform="matrix(1,0,0,1,0,0)" fill="#343131" class="undefined-text-0" data-fill-palette-color="primary" id="text-0"></path></svg></g></svg></g></svg></g></svg></g><g></g></svg></g></svg></g></svg></g></svg></g></svg><rect width="395.52" height="247.2" fill="none" stroke="none" visibility="hidden"></rect></g></svg></g></svg>